<svg xmlns="http://www.w3.org/2000/svg" version="1.1" xmlns:xlink="http://www.w3.org/1999/xlink" xmlns:svgjs="http://svgjs.dev/svgjs" width="1440" height="560" preserveAspectRatio="none" viewBox="0 0 1440 560"><g mask="url(&quot;#SvgjsMask1267&quot;)" fill="none"><rect width="1440" height="560" x="0" y="0" fill="rgba(129, 91, 91, 1)"></rect><path d="M123.84 72.8L189.66 110.8L189.66 186.8L123.84 224.8L58.02 186.8L58.02 110.8zM58.02 186.8L123.84 224.8L123.84 300.8L58.02 338.8L-7.8 300.8L-7.8 224.8zM58.02 414.8L123.84 452.8L123.84 528.8L58.02 566.8L-7.8 528.8L-7.8 452.8zM123.84 528.8L189.66 566.8L189.66 642.8L123.84 680.8L58.02 642.8L58.02 566.8zM255.48 72.8L321.3 110.8L321.3 186.8L255.48 224.8L189.66 186.8L189.66 110.8zM189.66 414.8L255.48 452.8L255.48 528.8L189.66 566.8L123.84 528.8L123.84 452.8zM387.12 72.8L452.94 110.8L452.94 186.8L387.12 224.8L321.3 186.8L321.3 110.8zM452.94 -41.2L518.76 -3.2L518.76 72.8L452.94 110.8L387.12 72.8L387.12 -3.2zM452.94 186.8L518.76 224.8L518.76 300.8L452.94 338.8L387.12 300.8L387.12 224.8zM518.76 528.8L584.58 566.8L584.58 642.8L518.76 680.8L452.94 642.8L452.94 566.8zM584.58 -41.2L650.4 -3.2L650.4 72.8L584.58 110.8L518.76 72.8L518.76 -3.2zM650.4 300.8L716.22 338.8L716.22 414.8L650.4 452.8L584.58 414.8L584.58 338.8zM650.4 528.8L716.22 566.8L716.22 642.8L650.4 680.8L584.58 642.8L584.58 566.8zM716.22 186.8L782.04 224.8L782.04 300.8L716.22 338.8L650.4 300.8L650.4 224.8zM847.86 -41.2L913.68 -3.2L913.68 72.8L847.86 110.8L782.04 72.8L782.04 -3.2zM913.68 72.8L979.5 110.8L979.5 186.8L913.68 224.8L847.86 186.8L847.86 110.8zM913.68 300.8L979.5 338.8L979.5 414.8L913.68 452.8L847.86 414.8L847.86 338.8zM913.68 528.8L979.5 566.8L979.5 642.8L913.68 680.8L847.86 642.8L847.86 566.8zM1045.32 72.8L1111.14 110.8L1111.14 186.8L1045.32 224.8L979.5 186.8L979.5 110.8zM1045.32 528.8L1111.14 566.8L1111.14 642.8L1045.32 680.8L979.5 642.8L979.5 566.8zM1111.14 -41.2L1176.96 -3.2L1176.96 72.8L1111.14 110.8L1045.32 72.8L1045.32 -3.2zM1111.14 414.8L1176.96 452.8L1176.96 528.8L1111.14 566.8L1045.32 528.8L1045.32 452.8zM1242.78 186.8L1308.6 224.8L1308.6 300.8L1242.78 338.8L1176.96 300.8L1176.96 224.8zM1308.6 528.8L1374.42 566.8L1374.42 642.8L1308.6 680.8L1242.78 642.8L1242.78 566.8zM1374.42 -41.2L1440.24 -3.2L1440.24 72.8L1374.42 110.8L1308.6 72.8L1308.6 -3.2zM1374.42 414.8L1440.24 452.8L1440.24 528.8L1374.42 566.8L1308.6 528.8L1308.6 452.8z" stroke="rgba(89, 69, 69, 1)" stroke-width="2"></path><path d="M116.24 72.8 a7.6 7.6 0 1 0 15.2 0 a7.6 7.6 0 1 0 -15.2 0zM182.06 110.8 a7.6 7.6 0 1 0 15.2 0 a7.6 7.6 0 1 0 -15.2 0zM182.06 186.8 a7.6 7.6 0 1 0 15.2 0 a7.6 7.6 0 1 0 -15.2 0zM116.24 224.8 a7.6 7.6 0 1 0 15.2 0 a7.6 7.6 0 1 0 -15.2 0zM50.42 186.8 a7.6 7.6 0 1 0 15.2 0 a7.6 7.6 0 1 0 -15.2 0zM50.42 110.8 a7.6 7.6 0 1 0 15.2 0 a7.6 7.6 0 1 0 -15.2 0zM116.24 300.8 a7.6 7.6 0 1 0 15.2 0 a7.6 7.6 0 1 0 -15.2 0zM50.42 338.8 a7.6 7.6 0 1 0 15.2 0 a7.6 7.6 0 1 0 -15.2 0zM-15.4 300.8 a7.6 7.6 0 1 0 15.2 0 a7.6 7.6 0 1 0 -15.2 0zM-15.4 224.8 a7.6 7.6 0 1 0 15.2 0 a7.6 7.6 0 1 0 -15.2 0zM50.42 414.8 a7.6 7.6 0 1 0 15.2 0 a7.6 7.6 0 1 0 -15.2 0zM116.24 452.8 a7.6 7.6 0 1 0 15.2 0 a7.6 7.6 0 1 0 -15.2 0zM116.24 528.8 a7.6 7.6 0 1 0 15.2 0 a7.6 7.6 0 1 0 -15.2 0zM50.42 566.8 a7.6 7.6 0 1 0 15.2 0 a7.6 7.6 0 1 0 -15.2 0zM-15.4 528.8 a7.6 7.6 0 1 0 15.2 0 a7.6 7.6 0 1 0 -15.2 0zM-15.4 452.8 a7.6 7.6 0 1 0 15.2 0 a7.6 7.6 0 1 0 -15.2 0zM182.06 566.8 a7.6 7.6 0 1 0 15.2 0 a7.6 7.6 0 1 0 -15.2 0zM182.06 642.8 a7.6 7.6 0 1 0 15.2 0 a7.6 7.6 0 1 0 -15.2 0zM116.24 680.8 a7.6 7.6 0 1 0 15.2 0 a7.6 7.6 0 1 0 -15.2 0zM50.42 642.8 a7.6 7.6 0 1 0 15.2 0 a7.6 7.6 0 1 0 -15.2 0zM247.88 72.8 a7.6 7.6 0 1 0 15.2 0 a7.6 7.6 0 1 0 -15.2 0zM313.7 110.8 a7.6 7.6 0 1 0 15.2 0 a7.6 7.6 0 1 0 -15.2 0zM313.7 186.8 a7.6 7.6 0 1 0 15.2 0 a7.6 7.6 0 1 0 -15.2 0zM247.88 224.8 a7.6 7.6 0 1 0 15.2 0 a7.6 7.6 0 1 0 -15.2 0zM182.06 414.8 a7.6 7.6 0 1 0 15.2 0 a7.6 7.6 0 1 0 -15.2 0zM247.88 452.8 a7.6 7.6 0 1 0 15.2 0 a7.6 7.6 0 1 0 -15.2 0zM247.88 528.8 a7.6 7.6 0 1 0 15.2 0 a7.6 7.6 0 1 0 -15.2 0zM379.52 72.8 a7.6 7.6 0 1 0 15.2 0 a7.6 7.6 0 1 0 -15.2 0zM445.34 110.8 a7.6 7.6 0 1 0 15.2 0 a7.6 7.6 0 1 0 -15.2 0zM445.34 186.8 a7.6 7.6 0 1 0 15.2 0 a7.6 7.6 0 1 0 -15.2 0zM379.52 224.8 a7.6 7.6 0 1 0 15.2 0 a7.6 7.6 0 1 0 -15.2 0zM445.34 -41.2 a7.6 7.6 0 1 0 15.2 0 a7.6 7.6 0 1 0 -15.2 0zM511.16 -3.2 a7.6 7.6 0 1 0 15.2 0 a7.6 7.6 0 1 0 -15.2 0zM511.16 72.8 a7.6 7.6 0 1 0 15.2 0 a7.6 7.6 0 1 0 -15.2 0zM379.52 -3.2 a7.6 7.6 0 1 0 15.2 0 a7.6 7.6 0 1 0 -15.2 0zM511.16 224.8 a7.6 7.6 0 1 0 15.2 0 a7.6 7.6 0 1 0 -15.2 0zM511.16 300.8 a7.6 7.6 0 1 0 15.2 0 a7.6 7.6 0 1 0 -15.2 0zM445.34 338.8 a7.6 7.6 0 1 0 15.2 0 a7.6 7.6 0 1 0 -15.2 0zM379.52 300.8 a7.6 7.6 0 1 0 15.2 0 a7.6 7.6 0 1 0 -15.2 0zM511.16 528.8 a7.6 7.6 0 1 0 15.2 0 a7.6 7.6 0 1 0 -15.2 0zM576.98 566.8 a7.6 7.6 0 1 0 15.2 0 a7.6 7.6 0 1 0 -15.2 0zM576.98 642.8 a7.6 7.6 0 1 0 15.2 0 a7.6 7.6 0 1 0 -15.2 0zM511.16 680.8 a7.6 7.6 0 1 0 15.2 0 a7.6 7.6 0 1 0 -15.2 0zM445.34 642.8 a7.6 7.6 0 1 0 15.2 0 a7.6 7.6 0 1 0 -15.2 0zM445.34 566.8 a7.6 7.6 0 1 0 15.2 0 a7.6 7.6 0 1 0 -15.2 0zM576.98 -41.2 a7.6 7.6 0 1 0 15.2 0 a7.6 7.6 0 1 0 -15.2 0zM642.8 -3.2 a7.6 7.6 0 1 0 15.2 0 a7.6 7.6 0 1 0 -15.2 0zM642.8 72.8 a7.6 7.6 0 1 0 15.2 0 a7.6 7.6 0 1 0 -15.2 0zM576.98 110.8 a7.6 7.6 0 1 0 15.2 0 a7.6 7.6 0 1 0 -15.2 0zM642.8 300.8 a7.6 7.6 0 1 0 15.2 0 a7.6 7.6 0 1 0 -15.2 0zM708.62 338.8 a7.6 7.6 0 1 0 15.2 0 a7.6 7.6 0 1 0 -15.2 0zM708.62 414.8 a7.6 7.6 0 1 0 15.2 0 a7.6 7.6 0 1 0 -15.2 0zM642.8 452.8 a7.6 7.6 0 1 0 15.2 0 a7.6 7.6 0 1 0 -15.2 0zM576.98 414.8 a7.6 7.6 0 1 0 15.2 0 a7.6 7.6 0 1 0 -15.2 0zM576.98 338.8 a7.6 7.6 0 1 0 15.2 0 a7.6 7.6 0 1 0 -15.2 0zM642.8 528.8 a7.6 7.6 0 1 0 15.2 0 a7.6 7.6 0 1 0 -15.2 0zM708.62 566.8 a7.6 7.6 0 1 0 15.2 0 a7.6 7.6 0 1 0 -15.2 0zM708.62 642.8 a7.6 7.6 0 1 0 15.2 0 a7.6 7.6 0 1 0 -15.2 0zM642.8 680.8 a7.6 7.6 0 1 0 15.2 0 a7.6 7.6 0 1 0 -15.2 0zM708.62 186.8 a7.6 7.6 0 1 0 15.2 0 a7.6 7.6 0 1 0 -15.2 0zM774.44 224.8 a7.6 7.6 0 1 0 15.2 0 a7.6 7.6 0 1 0 -15.2 0zM774.44 300.8 a7.6 7.6 0 1 0 15.2 0 a7.6 7.6 0 1 0 -15.2 0zM642.8 224.8 a7.6 7.6 0 1 0 15.2 0 a7.6 7.6 0 1 0 -15.2 0zM840.26 -41.2 a7.6 7.6 0 1 0 15.2 0 a7.6 7.6 0 1 0 -15.2 0zM906.08 -3.2 a7.6 7.6 0 1 0 15.2 0 a7.6 7.6 0 1 0 -15.2 0zM906.08 72.8 a7.6 7.6 0 1 0 15.2 0 a7.6 7.6 0 1 0 -15.2 0zM840.26 110.8 a7.6 7.6 0 1 0 15.2 0 a7.6 7.6 0 1 0 -15.2 0zM774.44 72.8 a7.6 7.6 0 1 0 15.2 0 a7.6 7.6 0 1 0 -15.2 0zM774.44 -3.2 a7.6 7.6 0 1 0 15.2 0 a7.6 7.6 0 1 0 -15.2 0zM971.9 110.8 a7.6 7.6 0 1 0 15.2 0 a7.6 7.6 0 1 0 -15.2 0zM971.9 186.8 a7.6 7.6 0 1 0 15.2 0 a7.6 7.6 0 1 0 -15.2 0zM906.08 224.8 a7.6 7.6 0 1 0 15.2 0 a7.6 7.6 0 1 0 -15.2 0zM840.26 186.8 a7.6 7.6 0 1 0 15.2 0 a7.6 7.6 0 1 0 -15.2 0zM906.08 300.8 a7.6 7.6 0 1 0 15.2 0 a7.6 7.6 0 1 0 -15.2 0zM971.9 338.8 a7.6 7.6 0 1 0 15.2 0 a7.6 7.6 0 1 0 -15.2 0zM971.9 414.8 a7.6 7.6 0 1 0 15.2 0 a7.6 7.6 0 1 0 -15.2 0zM906.08 452.8 a7.6 7.6 0 1 0 15.2 0 a7.6 7.6 0 1 0 -15.2 0zM840.26 414.8 a7.6 7.6 0 1 0 15.2 0 a7.6 7.6 0 1 0 -15.2 0zM840.26 338.8 a7.6 7.6 0 1 0 15.2 0 a7.6 7.6 0 1 0 -15.2 0zM906.08 528.8 a7.6 7.6 0 1 0 15.2 0 a7.6 7.6 0 1 0 -15.2 0zM971.9 566.8 a7.6 7.6 0 1 0 15.2 0 a7.6 7.6 0 1 0 -15.2 0zM971.9 642.8 a7.6 7.6 0 1 0 15.2 0 a7.6 7.6 0 1 0 -15.2 0zM906.08 680.8 a7.6 7.6 0 1 0 15.2 0 a7.6 7.6 0 1 0 -15.2 0zM840.26 642.8 a7.6 7.6 0 1 0 15.2 0 a7.6 7.6 0 1 0 -15.2 0zM840.26 566.8 a7.6 7.6 0 1 0 15.2 0 a7.6 7.6 0 1 0 -15.2 0zM1037.72 72.8 a7.6 7.6 0 1 0 15.2 0 a7.6 7.6 0 1 0 -15.2 0zM1103.54 110.8 a7.6 7.6 0 1 0 15.2 0 a7.6 7.6 0 1 0 -15.2 0zM1103.54 186.8 a7.6 7.6 0 1 0 15.2 0 a7.6 7.6 0 1 0 -15.2 0zM1037.72 224.8 a7.6 7.6 0 1 0 15.2 0 a7.6 7.6 0 1 0 -15.2 0zM1037.72 528.8 a7.6 7.6 0 1 0 15.2 0 a7.6 7.6 0 1 0 -15.2 0zM1103.54 566.8 a7.6 7.6 0 1 0 15.2 0 a7.6 7.6 0 1 0 -15.2 0zM1103.54 642.8 a7.6 7.6 0 1 0 15.2 0 a7.6 7.6 0 1 0 -15.2 0zM1037.72 680.8 a7.6 7.6 0 1 0 15.2 0 a7.6 7.6 0 1 0 -15.2 0zM1103.54 -41.2 a7.6 7.6 0 1 0 15.2 0 a7.6 7.6 0 1 0 -15.2 0zM1169.36 -3.2 a7.6 7.6 0 1 0 15.2 0 a7.6 7.6 0 1 0 -15.2 0zM1169.36 72.8 a7.6 7.6 0 1 0 15.2 0 a7.6 7.6 0 1 0 -15.2 0zM1037.72 -3.2 a7.6 7.6 0 1 0 15.2 0 a7.6 7.6 0 1 0 -15.2 0zM1103.54 414.8 a7.6 7.6 0 1 0 15.2 0 a7.6 7.6 0 1 0 -15.2 0zM1169.36 452.8 a7.6 7.6 0 1 0 15.2 0 a7.6 7.6 0 1 0 -15.2 0zM1169.36 528.8 a7.6 7.6 0 1 0 15.2 0 a7.6 7.6 0 1 0 -15.2 0zM1037.72 452.8 a7.6 7.6 0 1 0 15.2 0 a7.6 7.6 0 1 0 -15.2 0zM1235.18 186.8 a7.6 7.6 0 1 0 15.2 0 a7.6 7.6 0 1 0 -15.2 0zM1301 224.8 a7.6 7.6 0 1 0 15.2 0 a7.6 7.6 0 1 0 -15.2 0zM1301 300.8 a7.6 7.6 0 1 0 15.2 0 a7.6 7.6 0 1 0 -15.2 0zM1235.18 338.8 a7.6 7.6 0 1 0 15.2 0 a7.6 7.6 0 1 0 -15.2 0zM1169.36 300.8 a7.6 7.6 0 1 0 15.2 0 a7.6 7.6 0 1 0 -15.2 0zM1169.36 224.8 a7.6 7.6 0 1 0 15.2 0 a7.6 7.6 0 1 0 -15.2 0zM1301 528.8 a7.6 7.6 0 1 0 15.2 0 a7.6 7.6 0 1 0 -15.2 0zM1366.82 566.8 a7.6 7.6 0 1 0 15.2 0 a7.6 7.6 0 1 0 -15.2 0zM1366.82 642.8 a7.6 7.6 0 1 0 15.2 0 a7.6 7.6 0 1 0 -15.2 0zM1301 680.8 a7.6 7.6 0 1 0 15.2 0 a7.6 7.6 0 1 0 -15.2 0zM1235.18 642.8 a7.6 7.6 0 1 0 15.2 0 a7.6 7.6 0 1 0 -15.2 0zM1235.18 566.8 a7.6 7.6 0 1 0 15.2 0 a7.6 7.6 0 1 0 -15.2 0zM1366.82 -41.2 a7.6 7.6 0 1 0 15.2 0 a7.6 7.6 0 1 0 -15.2 0zM1432.64 -3.2 a7.6 7.6 0 1 0 15.2 0 a7.6 7.6 0 1 0 -15.2 0zM1432.64 72.8 a7.6 7.6 0 1 0 15.2 0 a7.6 7.6 0 1 0 -15.2 0zM1366.82 110.8 a7.6 7.6 0 1 0 15.2 0 a7.6 7.6 0 1 0 -15.2 0zM1301 72.8 a7.6 7.6 0 1 0 15.2 0 a7.6 7.6 0 1 0 -15.2 0zM1301 -3.2 a7.6 7.6 0 1 0 15.2 0 a7.6 7.6 0 1 0 -15.2 0zM1366.82 414.8 a7.6 7.6 0 1 0 15.2 0 a7.6 7.6 0 1 0 -15.2 0zM1432.64 452.8 a7.6 7.6 0 1 0 15.2 0 a7.6 7.6 0 1 0 -15.2 0zM1432.64 528.8 a7.6 7.6 0 1 0 15.2 0 a7.6 7.6 0 1 0 -15.2 0zM1301 452.8 a7.6 7.6 0 1 0 15.2 0 a7.6 7.6 0 1 0 -15.2 0z" fill="rgba(89, 69, 69, 1)"></path><path d="M183.22 519.65L286.28 579.15L286.28 698.15L183.22 757.65L80.16 698.15L80.16 579.15zM389.34 162.65L492.4 222.15L492.4 341.15L389.34 400.65L286.28 341.15L286.28 222.15zM286.28 341.15L389.34 400.65L389.34 519.65L286.28 579.15L183.22 519.65L183.22 400.65zM389.34 519.65L492.4 579.15L492.4 698.15L389.34 757.65L286.28 698.15L286.28 579.15zM595.46 162.65L698.52 222.15L698.52 341.15L595.46 400.65L492.4 341.15L492.4 222.15zM904.64 -15.85L1007.7 43.65L1007.7 162.65L904.64 222.15L801.58 162.65L801.58 43.65zM904.64 341.15L1007.7 400.65L1007.7 519.65L904.64 579.15L801.58 519.65L801.58 400.65zM1007.7 519.65L1110.76 579.15L1110.76 698.15L1007.7 757.65L904.64 698.15L904.64 579.15zM1213.82 519.65L1316.88 579.15L1316.88 698.15L1213.82 757.65L1110.76 698.15L1110.76 579.15zM1316.88 -15.85L1419.94 43.65L1419.94 162.65L1316.88 222.15L1213.82 162.65L1213.82 43.65zM1419.94 162.65L1523 222.15L1523 341.15L1419.94 400.65L1316.88 341.15L1316.88 222.15zM1419.94 519.65L1523 579.15L1523 698.15L1419.94 757.65L1316.88 698.15L1316.88 579.15z" stroke="rgba(255, 248, 234, 0.28)" stroke-width="2"></path><path d="M11.1 370.6L37.95 386.1L37.95 417.1L11.1 432.6L-15.75 417.1L-15.75 386.1zM11.1 463.6L37.95 479.1L37.95 510.1L11.1 525.6L-15.75 510.1L-15.75 479.1zM64.8 370.6L91.64 386.1L91.64 417.1L64.8 432.6L37.95 417.1L37.95 386.1zM91.64 510.1L118.49 525.6L118.49 556.6L91.64 572.1L64.8 556.6L64.8 525.6zM64.8 556.6L91.64 572.1L91.64 603.1L64.8 618.6L37.95 603.1L37.95 572.1zM145.34 45.1L172.19 60.6L172.19 91.6L145.34 107.1L118.49 91.6L118.49 60.6zM145.34 231.1L172.19 246.6L172.19 277.6L145.34 293.1L118.49 277.6L118.49 246.6zM118.49 277.6L145.34 293.1L145.34 324.1L118.49 339.6L91.64 324.1L91.64 293.1zM118.49 556.6L145.34 572.1L145.34 603.1L118.49 618.6L91.64 603.1L91.64 572.1zM199.03 138.1L225.88 153.6L225.88 184.6L199.03 200.1L172.19 184.6L172.19 153.6zM279.58 184.6L306.42 200.1L306.42 231.1L279.58 246.6L252.73 231.1L252.73 200.1zM279.58 370.6L306.42 386.1L306.42 417.1L279.58 432.6L252.73 417.1L252.73 386.1zM279.58 556.6L306.42 572.1L306.42 603.1L279.58 618.6L252.73 603.1L252.73 572.1zM360.12 138.1L386.97 153.6L386.97 184.6L360.12 200.1L333.27 184.6L333.27 153.6zM333.27 184.6L360.12 200.1L360.12 231.1L333.27 246.6L306.42 231.1L306.42 200.1zM333.27 463.6L360.12 479.1L360.12 510.1L333.27 525.6L306.42 510.1L306.42 479.1zM386.97 91.6L413.81 107.1L413.81 138.1L386.97 153.6L360.12 138.1L360.12 107.1zM413.81 138.1L440.66 153.6L440.66 184.6L413.81 200.1L386.97 184.6L386.97 153.6zM386.97 277.6L413.81 293.1L413.81 324.1L386.97 339.6L360.12 324.1L360.12 293.1zM386.97 370.6L413.81 386.1L413.81 417.1L386.97 432.6L360.12 417.1L360.12 386.1zM413.81 417.1L440.66 432.6L440.66 463.6L413.81 479.1L386.97 463.6L386.97 432.6zM467.51 231.1L494.36 246.6L494.36 277.6L467.51 293.1L440.66 277.6L440.66 246.6zM467.51 510.1L494.36 525.6L494.36 556.6L467.51 572.1L440.66 556.6L440.66 525.6zM440.66 556.6L467.51 572.1L467.51 603.1L440.66 618.6L413.81 603.1L413.81 572.1zM548.05 463.6L574.9 479.1L574.9 510.1L548.05 525.6L521.2 510.1L521.2 479.1zM548.05 556.6L574.9 572.1L574.9 603.1L548.05 618.6L521.2 603.1L521.2 572.1zM628.59 138.1L655.44 153.6L655.44 184.6L628.59 200.1L601.75 184.6L601.75 153.6zM628.59 231.1L655.44 246.6L655.44 277.6L628.59 293.1L601.75 277.6L601.75 246.6zM628.59 324.1L655.44 339.6L655.44 370.6L628.59 386.1L601.75 370.6L601.75 339.6zM601.75 370.6L628.59 386.1L628.59 417.1L601.75 432.6L574.9 417.1L574.9 386.1zM601.75 463.6L628.59 479.1L628.59 510.1L601.75 525.6L574.9 510.1L574.9 479.1zM682.29 45.1L709.14 60.6L709.14 91.6L682.29 107.1L655.44 91.6L655.44 60.6zM655.44 91.6L682.29 107.1L682.29 138.1L655.44 153.6L628.59 138.1L628.59 107.1zM655.44 370.6L682.29 386.1L682.29 417.1L655.44 432.6L628.59 417.1L628.59 386.1zM682.29 417.1L709.14 432.6L709.14 463.6L682.29 479.1L655.44 463.6L655.44 432.6zM709.14 91.6L735.98 107.1L735.98 138.1L709.14 153.6L682.29 138.1L682.29 107.1zM709.14 184.6L735.98 200.1L735.98 231.1L709.14 246.6L682.29 231.1L682.29 200.1zM735.98 231.1L762.83 246.6L762.83 277.6L735.98 293.1L709.14 277.6L709.14 246.6zM789.68 324.1L816.53 339.6L816.53 370.6L789.68 386.1L762.83 370.6L762.83 339.6zM762.83 556.6L789.68 572.1L789.68 603.1L762.83 618.6L735.98 603.1L735.98 572.1zM843.37 45.1L870.22 60.6L870.22 91.6L843.37 107.1L816.53 91.6L816.53 60.6zM843.37 510.1L870.22 525.6L870.22 556.6L843.37 572.1L816.53 556.6L816.53 525.6zM816.53 556.6L843.37 572.1L843.37 603.1L816.53 618.6L789.68 603.1L789.68 572.1zM870.22 -1.4L897.07 14.1L897.07 45.1L870.22 60.6L843.37 45.1L843.37 14.1zM870.22 91.6L897.07 107.1L897.07 138.1L870.22 153.6L843.37 138.1L843.37 107.1zM897.07 417.1L923.92 432.6L923.92 463.6L897.07 479.1L870.22 463.6L870.22 432.6zM977.61 91.6L1004.46 107.1L1004.46 138.1L977.61 153.6L950.76 138.1L950.76 107.1zM1031.31 -1.4L1058.15 14.1L1058.15 45.1L1031.31 60.6L1004.46 45.1L1004.46 14.1zM1031.31 370.6L1058.15 386.1L1058.15 417.1L1031.31 432.6L1004.46 417.1L1004.46 386.1zM1058.15 510.1L1085 525.6L1085 556.6L1058.15 572.1L1031.31 556.6L1031.31 525.6zM1111.85 231.1L1138.7 246.6L1138.7 277.6L1111.85 293.1L1085 277.6L1085 246.6zM1085 370.6L1111.85 386.1L1111.85 417.1L1085 432.6L1058.15 417.1L1058.15 386.1zM1165.54 231.1L1192.39 246.6L1192.39 277.6L1165.54 293.1L1138.7 277.6L1138.7 246.6zM1138.7 370.6L1165.54 386.1L1165.54 417.1L1138.7 432.6L1111.85 417.1L1111.85 386.1zM1165.54 417.1L1192.39 432.6L1192.39 463.6L1165.54 479.1L1138.7 463.6L1138.7 432.6zM1219.24 231.1L1246.09 246.6L1246.09 277.6L1219.24 293.1L1192.39 277.6L1192.39 246.6zM1219.24 324.1L1246.09 339.6L1246.09 370.6L1219.24 386.1L1192.39 370.6L1192.39 339.6zM1192.39 556.6L1219.24 572.1L1219.24 603.1L1192.39 618.6L1165.54 603.1L1165.54 572.1zM1246.09 277.6L1272.93 293.1L1272.93 324.1L1246.09 339.6L1219.24 324.1L1219.24 293.1zM1272.93 510.1L1299.78 525.6L1299.78 556.6L1272.93 572.1L1246.09 556.6L1246.09 525.6zM1326.63 231.1L1353.48 246.6L1353.48 277.6L1326.63 293.1L1299.78 277.6L1299.78 246.6zM1326.63 417.1L1353.48 432.6L1353.48 463.6L1326.63 479.1L1299.78 463.6L1299.78 432.6zM1299.78 556.6L1326.63 572.1L1326.63 603.1L1299.78 618.6L1272.93 603.1L1272.93 572.1zM1380.33 138.1L1407.17 153.6L1407.17 184.6L1380.33 200.1L1353.48 184.6L1353.48 153.6zM1407.17 -1.4L1434.02 14.1L1434.02 45.1L1407.17 60.6L1380.33 45.1L1380.33 14.1zM1434.02 324.1L1460.87 339.6L1460.87 370.6L1434.02 386.1L1407.17 370.6L1407.17 339.6zM1407.17 556.6L1434.02 572.1L1434.02 603.1L1407.17 618.6L1380.33 603.1L1380.33 572.1z" stroke="rgba(158, 118, 118, 1)" stroke-width="2"></path></g><defs><mask id="SvgjsMask1267"><rect width="1440" height="560" fill="#ffffff"></rect></mask></defs></svg>